<svg width="10" height="14" viewBox="0 0 10 14" fill="none" xmlns="http://www.w3.org/2000/svg">
<path d="M1.75 0.5C1.19772 0.5 0.75 0.947715 0.75 1.5V2.5C0.75 3.05228 1.19772 3.5 1.75 3.5H2.75C3.30228 3.5 3.75 3.05228 3.75 2.5V1.5C3.75 0.947715 3.30228 0.5 2.75 0.5H1.75Z" fill="#002133"/>
<path d="M1.75 5.5C1.19772 5.5 0.75 5.94772 0.75 6.5V7.5C0.75 8.05228 1.19772 8.5 1.75 8.5H2.75C3.30228 8.5 3.75 8.05228 3.75 7.5V6.5C3.75 5.94772 3.30228 5.5 2.75 5.5H1.75Z" fill="#002133"/>
<path d="M0.75 11.5C0.75 10.9477 1.19772 10.5 1.75 10.5H2.75C3.30228 10.5 3.75 10.9477 3.75 11.5V12.5C3.75 13.0523 3.30228 13.5 2.75 13.5H1.75C1.19772 13.5 0.75 13.0523 0.75 12.5V11.5Z" fill="#002133"/>
<path d="M7.25 0.5C6.69772 0.5 6.25 0.947715 6.25 1.5V2.5C6.25 3.05228 6.69772 3.5 7.25 3.5H8.25C8.80228 3.5 9.25 3.05228 9.25 2.5V1.5C9.25 0.947715 8.80228 0.5 8.25 0.5H7.25Z" fill="#002133"/>
<path d="M6.25 6.5C6.25 5.94772 6.69772 5.5 7.25 5.5H8.25C8.80228 5.5 9.25 5.94772 9.25 6.5V7.5C9.25 8.05228 8.80228 8.5 8.25 8.5H7.25C6.69772 8.5 6.25 8.05228 6.25 7.5V6.5Z" fill="#002133"/>
<path d="M7.25 10.5C6.69772 10.5 6.25 10.9477 6.25 11.5V12.5C6.25 13.0523 6.69772 13.5 7.25 13.5H8.25C8.80228 13.5 9.25 13.0523 9.25 12.5V11.5C9.25 10.9477 8.80228 10.5 8.25 10.5H7.25Z" fill="#002133"/>
</svg>
