<svg width="14" height="15" viewBox="0 0 14 15" fill="none" xmlns="http://www.w3.org/2000/svg">
<path d="M8.50006 6.25C8.91427 6.25 9.25006 6.58579 9.25006 7V11.25C9.25006 11.6642 8.91427 12 8.50006 12C8.08585 12 7.75006 11.6642 7.75006 11.25V7C7.75006 6.58579 8.08585 6.25 8.50006 6.25Z" fill="#FF2A2A"/>
<path d="M6.25006 7C6.25006 6.58579 5.91427 6.25 5.50006 6.25C5.08585 6.25 4.75006 6.58579 4.75006 7V11.25C4.75006 11.6642 5.08585 12 5.50006 12C5.91427 12 6.25006 11.6642 6.25006 11.25V7Z" fill="#FF2A2A"/>
<path fill-rule="evenodd" clip-rule="evenodd" d="M4.25 3.25C4.25 1.73122 5.48122 0.5 7 0.5C8.51878 0.5 9.75 1.73122 9.75 3.25H12.7501C13.1643 3.25 13.5001 3.58579 13.5001 4C13.5001 4.41421 13.1643 4.75 12.7501 4.75H12L11.9999 10.2001C11.9998 11.8802 11.9998 12.7203 11.6728 13.362C11.3852 13.9265 10.9262 14.3854 10.3618 14.673C9.72002 15 8.87995 15 7.19981 15H6.80005C5.11984 15 4.27974 15 3.63799 14.673C3.07349 14.3854 2.61455 13.9264 2.32693 13.3619C1.99995 12.7202 1.99997 11.8801 2 10.1999L2.00011 4.75H1.25006C0.835847 4.75 0.500061 4.41421 0.500061 4C0.500061 3.58579 0.835847 3.25 1.25006 3.25H4.25ZM5.75 3.25C5.75 2.55964 6.30964 2 7 2C7.69036 2 8.25 2.55964 8.25 3.25H5.75ZM3.50013 4.75H10.5L10.4998 10.2001C10.4998 11.0649 10.4986 11.6233 10.4639 12.0483C10.4306 12.4558 10.3741 12.6068 10.3363 12.681C10.1925 12.9632 9.96302 13.1927 9.68077 13.3365C9.60661 13.3743 9.45553 13.4308 9.04804 13.4641C8.62304 13.4988 8.06463 13.5 7.19981 13.5H6.80005C5.93519 13.5 5.37677 13.4988 4.95175 13.4641C4.54424 13.4308 4.39316 13.3743 4.31899 13.3365C4.03674 13.1927 3.80727 12.9632 3.66346 12.681C3.62567 12.6068 3.56916 12.4557 3.53587 12.0482C3.50115 11.6232 3.5 11.0648 3.50002 10.1999L3.50013 4.75Z" fill="#FF2A2A"/>
</svg>
