<svg width="14" height="14" viewBox="0 0 14 14" fill="none" xmlns="http://www.w3.org/2000/svg">
<path d="M11.6659 0.603539C11.8611 0.408277 12.1777 0.408277 12.373 0.603539L13.4337 1.6642C13.6289 1.85946 13.6289 2.17604 13.4337 2.37131L12.4765 3.32842L10.7088 1.56065L11.6659 0.603539Z" fill="#00AEF9"/>
<path d="M10.0017 2.26776L11.7694 4.03553L7.93885 7.86611C7.58 8.22496 7.09816 8.43397 6.59095 8.4508L5.81894 8.47641C5.67442 8.4812 5.55599 8.36277 5.56078 8.21826L5.5864 7.44624C5.60322 6.93903 5.81224 6.45719 6.17108 6.09834L10.0017 2.26776Z" fill="#00AEF9"/>
<path d="M2 4.24999C2 3.00734 3.00736 1.99999 4.25 1.99999H6.08C6.49421 1.99999 6.83 1.6642 6.83 1.24999C6.83 0.835772 6.49421 0.499986 6.08 0.499986H4.25C2.17893 0.499986 0.5 2.17892 0.5 4.24999V9.74999C0.5 11.8211 2.17893 13.5 4.25 13.5H9.75C11.8211 13.5 13.5 11.8211 13.5 9.74999V7.91999C13.5 7.50577 13.1642 7.16999 12.75 7.16999C12.3358 7.16999 12 7.50577 12 7.91999V9.74999C12 10.9926 10.9926 12 9.75 12H4.25C3.00736 12 2 10.9926 2 9.74999V4.24999Z" fill="#00AEF9"/>
</svg>
