<svg width="32" height="32" viewBox="0 0 32 32" fill="none" xmlns="http://www.w3.org/2000/svg">
<path d="M22.5731 12.5466C22.582 12.5465 22.591 12.5465 22.6 12.5465C25.5824 12.5465 28 14.9686 28 17.9565C28 20.7411 25.9 23.0343 23.2 23.3333M22.5731 12.5466C22.5909 12.3486 22.6 12.1481 22.6 11.9454C22.6 8.29365 19.6451 5.33331 16 5.33331C12.5479 5.33331 9.7148 7.98852 9.4245 11.3716M22.5731 12.5466C22.4504 13.9104 21.9143 15.1548 21.0914 16.1531M9.4245 11.3716C6.38078 11.6618 4 14.23 4 17.3553C4 20.2634 6.06131 22.6892 8.8 23.2461M9.4245 11.3716C9.61391 11.3536 9.80588 11.3443 10 11.3443C11.351 11.3443 12.5977 11.7916 13.6006 12.5465" stroke="#00B3FF" stroke-width="2" stroke-linejoin="round"/>
<path d="M16 17.3333V26.9333M16 17.3333L12.4 20.9333M16 17.3333L19.6 20.9333" stroke="#00B3FF" stroke-width="2"/>
</svg>
